<?xml version="1.0" encoding="UTF-8"?>
<svg id="Capa_2" data-name="Capa 2" xmlns="http://www.w3.org/2000/svg" viewBox="0 0 349.35 72.2">
  <defs>
    <style>
      .cls-1 {
        fill: #f3f3f3;
      }
    </style>
  </defs>
  <g id="Capa_1-2" data-name="Capa 1">
    <g>
      <path class="cls-1" d="M0,.99h10.48v55.04H0V.99Z"/>
      <path class="cls-1" d="M24.34,62.88c2.72,0,4.54-.74,5.53-2.89l1.49-3.38L15.18,16.17h11.22l10.4,27.73,10.4-27.73h11.31l-18.73,46.38c-2.97,7.51-8.25,9.49-15.1,9.65-1.24,0-3.88-.25-5.2-.58l1.57-9.41c.91.41,2.31.66,3.3.66Z"/>
      <path class="cls-1" d="M112.63,30.86c0-3.71-1.65-6.35-5.94-6.35-3.71,0-6.77,2.48-8.25,4.62v26.9h-10.56v-25.17c0-3.71-1.65-6.35-5.94-6.35-3.63,0-6.68,2.48-8.25,4.7v26.82h-10.48V16.17h10.48v5.2c1.65-2.39,6.93-6.19,13.04-6.19s9.57,2.72,11.06,7.26c2.31-3.63,7.59-7.26,13.7-7.26,7.34,0,11.72,3.88,11.72,12.05v28.8h-10.56v-25.17Z"/>
      <path class="cls-1" d="M132.76,44.81c2.15,3.05,7.51,6.27,13.45,6.27,5.12,0,8.17-2.97,8.17-6.19,0-3.05-3.96-4.54-8.42-6.19-5.69-2.15-12.38-4.62-12.38-10.98s5.53-12.54,15.51-12.54c6.77,0,12.71,2.81,15.68,6.52l-4.04,4.87c-1.9-2.81-6.85-5.36-11.88-5.36s-7.84,2.31-7.84,5.36c0,2.72,3.8,4.13,8.09,5.78,5.86,2.15,12.71,4.62,12.71,11.39s-5.86,13.29-16.09,13.29c-7.26,0-13.53-2.48-17.49-7.1l4.54-5.12Z"/>
      <path class="cls-1" d="M171.87,46.87l5.36-24.26h-6.6l1.48-6.44h6.6l2.39-10.89h7.43l-2.39,10.89h8.09l-1.49,6.44h-8.09l-4.95,22.61c-.08.41-.16.99-.16,1.57,0,2.31,1.32,3.63,3.96,3.63,1.32,0,2.81-.58,3.55-1.16l.58,5.94c-1.49,1.16-3.71,1.82-6.11,1.82-6.02,0-9.9-2.39-9.9-7.67,0-.5.08-1.57.25-2.48Z"/>
      <path class="cls-1" d="M204.22,41.67c-.16.74-.41,1.98-.41,2.72,0,4.29,3.38,6.02,7.84,6.02s8.58-2.97,11.47-5.86l6.27-28.39h7.43l-8.83,39.86h-7.43l1.24-5.61c-3.38,3.22-8.09,6.6-13.86,6.6-7.18,0-12.05-3.63-12.05-9.99,0-.74.25-2.48.49-3.3l6.11-27.56h7.43l-5.69,25.5Z"/>
      <path class="cls-1" d="M280.38.99h7.43l-12.21,55.04h-7.43l1.24-5.53c-3.3,4.13-7.59,6.52-12.79,6.52-9.08,0-15.35-5.94-15.35-16.42,0-12.71,7.84-25.42,20.96-25.42,5.94,0,10.81,2.72,13.53,7.01l4.62-21.21ZM259.5,50.42c4.62,0,8.91-2.81,11.31-6.19l3.71-16.5c-1.9-3.3-5.94-5.94-11.3-5.94-8.42,0-14.11,8.42-14.11,17.41,0,6.93,4.21,11.22,10.4,11.22Z"/>
      <path class="cls-1" d="M296.3,16.17h7.43l-8.83,39.86h-7.43l8.83-39.86ZM302.9,0c2.48,0,4.37,1.9,4.37,4.13,0,3.38-2.97,5.36-5.36,5.36-2.56,0-4.37-1.82-4.37-4.13,0-3.38,2.97-5.36,5.36-5.36Z"/>
      <path class="cls-1" d="M330.62,15.18c11.72,0,18.73,7.34,18.73,17.82,0,12.54-9.49,24.01-22.53,24.01-11.72,0-18.65-7.26-18.65-17.82,0-12.46,9.41-24.01,22.44-24.01ZM330.46,21.79c-8.5,0-14.52,8.42-14.52,17.08,0,7.1,4.13,11.55,11.14,11.55,8.5,0,14.52-8.33,14.52-17.08,0-7.1-4.21-11.55-11.14-11.55Z"/>
    </g>
  </g>
</svg>